<svg style="fill:white;fill-rule:evenodd;clip-rule:evenodd;stroke-linejoin:round;stroke-miterlimit:1.41421;" viewBox="0 0 365 269" version="1.1" xmlns="http://www.w3.org/2000/svg" xmlns:xlink="http://www.w3.org/1999/xlink"><g><path d="M1.295,145.697l0.513,0l34.048,39.278l33.638,-39.278l0.512,0l0,71.173l-10.357,0l0,-45.227l-23.793,28.408l-0.513,0l-23.69,-28.408l0,45.227l-10.358,0l0,-71.173Z" /><path d="M142.406,182.001c0,-14.768 -10.153,-25.844 -24.613,-25.844c-14.46,0 -24.613,11.076 -24.613,25.844c0,14.768 10.153,25.843 24.613,25.843c14.46,0 24.613,-11.075 24.613,-25.843m-60.61,0c0,-20.614 15.999,-35.792 35.997,-35.792c19.998,0 35.996,15.178 35.996,35.792c0,20.613 -15.998,35.791 -35.996,35.791c-19.998,0 -35.997,-15.178 -35.997,-35.791" /><path d="M167.427,198.512c3.179,6.153 8.615,9.435 15.793,9.435c7.385,0 12.307,-3.487 12.307,-9.127c0,-6.563 -4.922,-8.82 -11.076,-11.589l-4.82,-2.154c-10.255,-4.511 -17.229,-9.845 -17.229,-20.715c0,-10.666 7.897,-18.153 19.383,-18.153c8.922,0 15.486,3.59 19.895,10.974l-8.307,5.435c-2.666,-4.512 -6.153,-6.769 -11.383,-6.769c-5.641,0 -8.922,3.282 -8.922,8.102c0,5.539 3.384,7.692 10.973,11.077l4.82,2.153c10.563,4.717 17.537,9.538 17.537,21.331c0,12.819 -9.846,19.28 -23.075,19.28c-11.793,0 -20.408,-5.742 -25.125,-14.665l9.229,-4.615Z" /><path d="M242.29,169.797l-11.588,27.587l22.971,0c0.103,0 -11.383,-27.587 -11.383,-27.587m-19.69,47.072l-11.076,0l30.561,-71.173l0.615,0l30.664,71.173l-11.589,0l-3.999,-9.742l-31.177,0l-3.999,9.742Z" /><rect x="283.41" y="147.133" width="10.974" height="69.737"/><path d="M348.018,147.133l12.409,0l-24.716,31.279l28.408,38.458l-13.332,0l-22.254,-30.151l-7.692,9.435l0,20.716l-10.973,0l0,-69.737l10.973,0l0,34.561l27.177,-34.561Z" /><path d="M0,255.432c0,-7.66 5.726,-13.196 13.043,-13.196c4.361,0 7.812,1.783 10.125,4.816l-1.896,1.365c-1.934,-2.503 -4.664,-3.943 -8.266,-3.943c-5.991,0 -10.428,4.702 -10.428,10.958c0,6.332 4.512,10.959 10.617,10.959c3.716,0 6.712,-1.555 8.76,-4.286l1.933,1.365c-2.54,3.337 -6.142,5.157 -10.768,5.157c-7.394,0 -13.158,-5.536 -13.12,-13.195" /><path d="M45.084,242.54l2.465,0l0,25.785l-2.465,0l0,-8.494l-14.067,0l0,8.494l-2.465,0l0,-25.785l2.465,0l0,15.091l14.067,0l0,-15.091Z" /><path d="M53.957,259.565l0,-17.025l2.464,0l0,16.836c0,4.664 2.617,7.015 6.636,7.015c4.058,0 6.636,-2.351 6.636,-7.015l0,-16.836l2.465,0l0,17.025c0,5.991 -3.906,9.063 -9.101,9.063c-5.195,0 -9.1,-3.072 -9.1,-9.063" /><path d="M84.026,259.717c5.877,0 8.228,-3.147 8.228,-7.47c0,-4.322 -2.389,-7.508 -8.228,-7.508l-2.996,0l0,14.978l2.996,0Zm10.389,8.608l-2.995,0l-5.119,-6.598c-0.683,0.114 -1.365,0.151 -2.124,0.151l-3.147,0l0,6.447l-2.464,0l0,-25.785l5.611,0c7.016,0 10.656,4.133 10.656,9.707c0,4.133 -2.048,7.508 -6.03,8.911l5.612,7.167Z" /><path d="M98.472,255.432c0,-7.66 5.726,-13.196 13.043,-13.196c4.361,0 7.812,1.783 10.125,4.816l-1.896,1.365c-1.934,-2.503 -4.664,-3.943 -8.266,-3.943c-5.991,0 -10.428,4.702 -10.428,10.958c0,6.332 4.512,10.959 10.617,10.959c3.716,0 6.712,-1.555 8.76,-4.286l1.933,1.365c-2.54,3.337 -6.142,5.157 -10.768,5.157c-7.394,0 -13.158,-5.536 -13.12,-13.195" /><path d="M143.556,242.54l2.465,0l0,25.785l-2.465,0l0,-8.494l-14.067,0l0,8.494l-2.465,0l0,-25.785l2.465,0l0,15.091l14.067,0l0,-15.091Z" /><path d="M173.207,262.333c1.365,2.578 3.716,4.058 6.75,4.058c3.526,0 5.611,-1.745 5.611,-4.437c0,-2.844 -1.744,-4.134 -4.853,-5.575l-2.086,-0.985c-3.715,-1.745 -5.953,-3.413 -5.953,-7.015c0,-3.678 2.844,-6.143 6.636,-6.143c3.223,0 5.46,1.214 7.053,3.792l-1.896,1.213c-1.176,-1.933 -2.768,-2.844 -5.119,-2.844c-2.541,0 -4.247,1.631 -4.247,3.906c0,2.465 1.403,3.375 4.55,4.854l2.086,0.986c4.133,1.971 6.294,3.867 6.294,7.734c0,4.248 -3.223,6.75 -8.038,6.75c-4.209,0 -7.205,-2.047 -8.873,-5.194l2.085,-1.1Z" /><path d="M197.929,244.739l-8.001,0l0,-2.199l18.428,0l0,2.199l-7.962,0l0,23.585l-2.465,0l0,-23.585Z" /><path d="M212.414,259.565l0,-17.025l2.464,0l0,16.836c0,4.664 2.617,7.015 6.636,7.015c4.058,0 6.636,-2.351 6.636,-7.015l0,-16.836l2.465,0l0,17.025c0,5.991 -3.906,9.063 -9.101,9.063c-5.195,0 -9.1,-3.072 -9.1,-9.063" /><path d="M242.672,244.739l-8.001,0l0,-2.199l18.428,0l0,2.199l-7.962,0l0,23.585l-2.465,0l0,-23.585Z" /><path d="M262.996,244.739l-8.001,0l0,-2.199l18.428,0l0,2.199l-7.962,0l0,23.585l-2.465,0l0,-23.585Z" /><path d="M274.257,255.432c0,-7.621 5.877,-13.196 13.195,-13.196c4.551,0 8.191,1.669 10.617,5.119l-1.895,1.403c-1.972,-2.805 -4.778,-4.284 -8.76,-4.284c-6.104,0 -10.579,4.702 -10.579,10.958c0,6.256 4.512,10.959 10.693,10.959c5.916,0 8.759,-3.338 9.631,-6.561l-9.176,0l0,-2.199l12.02,0c-0.493,6.522 -5.043,10.996 -12.475,10.996c-7.318,0 -13.271,-5.574 -13.271,-13.195" /><path d="M311.985,247.355l-5.801,14.295l11.527,0c0.038,0 -5.726,-14.295 -5.726,-14.295m-8.494,20.969l-2.464,0l10.844,-26.391l0.19,0l10.882,26.391l-2.54,0l-1.782,-4.474l-13.309,0l-1.821,4.474Z" /><path d="M332.839,259.717c5.877,0 8.228,-3.147 8.228,-7.47c0,-4.322 -2.389,-7.508 -8.228,-7.508l-2.996,0l0,14.978l2.996,0Zm10.389,8.608l-2.995,0l-5.119,-6.598c-0.683,0.114 -1.365,0.151 -2.124,0.151l-3.147,0l0,6.447l-2.464,0l0,-25.785l5.611,0c7.016,0 10.656,4.133 10.656,9.707c0,4.133 -2.048,7.508 -6.03,8.911l5.612,7.167Z" /><path d="M353.694,244.739l-8.001,0l0,-2.199l18.428,0l0,2.199l-7.962,0l0,23.585l-2.465,0l0,-23.585Z" /><path d="M253.496,115.341c0.912,0 1.789,-0.962 1.604,-1.839l-25.2,-112.208c-0.287,-1.267 -1.739,-1.672 -2.583,-0.828l-112.476,112.265c-0.93,0.973 -0.322,2.59 1.074,2.61l137.581,0Z" /><path d="M175.177,46c0.506,-0.506 0.607,-1.502 -0.051,-2.161l-43.237,-43.322c-0.827,-0.827 -2.362,-0.76 -2.7,0.928l-25.474,112.038c-0.372,1.62 1.603,2.43 2.63,1.398l68.832,-68.881Z" /></g></svg>