<svg xmlns="http://www.w3.org/2000/svg" width="36" height="24" viewBox="0 0 330 190">
    <polygon points="86.6 125.205 143.356 125.205 143.356 -0.277 86.6 125.205 86.6 125.205" style="fill: #164194;"></polygon>
    <polygon points="153.786 83.13 153.786 125.205 191.866 125.205 191.866 -0.772 153.786 83.13 153.786 83.13" style="fill: #164194;"></polygon>
    <polygon points="201.083 83.13 201.083 125.205 239.164 125.205 239.164 -0.772 201.083 83.13 201.083 83.13" style="fill: #164194;"></polygon>
    <path d="M27.7451,146.127c2.6465.82221,2.8291,1.07031,7.1177,4.19331l.2734-.1641,2.0074-1.5625c.6386-.4101,1.0039-.6582,1.2778-.8222l1.8247-1.0684,3.0112-1.0683a19.42173,19.42173,0,0,1,6.3872-.9043,22.26993,22.26993,0,0,1,14.3262,5.0136c4.37989,3.9454,6.66109,8.3848,6.66109,13.3985v35.7578H58.8608v-36.5801a7.35074,7.35074,0,0,0-1.3686-3.5332,9.53488,9.53488,0,0,0-7.6651-3.7812c-4.7446,0-9.0332,3.7812-9.0332,8.0546v35.7559H28.9316v-36.4141c0-3.6152-4.1977-7.3144-8.395-7.3144a12.62846,12.62846,0,0,0-5.9311,1.4785l-.6387.5762-.5474.4101c-1.6425,1.8086-2.3725,3.4532-2.3725,4.7676v36.5801H-.4502v-38.0586a21.21537,21.21537,0,0,1,2.2813-6.5762A21.67156,21.67156,0,0,1,6.2109,149.334l.9121-.74029,1.7339-.9863.9126-.5762a10.51745,10.51745,0,0,1,2.0987-.90421l3.0112-.90239a14.22025,14.22025,0,0,1,3.8325-.5762,26.5237,26.5237,0,0,1,9.0332,1.47859Z" style="fill: #164194;"></path>
    <path d="M90.61469,163.63671v8.7949h22.0821v-9.041a8.08977,8.08977,0,0,0-1.7339-4.1113,13.4142,13.4142,0,0,0-8.3945-4.2734c-6.4786,0-10.85839,3.205-11.9537,8.6308Zm29.5645-9.9472c2.8286,3.9472,4.2886,7.80849,4.2886,11.5917v33.6192h-11.5884v-17.5918H90.61469v17.5918H79.02639v-33.209l.0913-1.5625a20.29111,20.29111,0,0,1,4.6538-11.1777,24.95965,24.95965,0,0,1,2.5547-2.6309l.8213-.6582.8213-.5742a31.526,31.526,0,0,1,4.0146-2.1387l2.0078-.82221,3.5586-.82039a14.59366,14.59366,0,0,1,2.646-.33c8.9424,0,14.6909,2.5488,19.9834,8.7129Z" style="fill: #164194;"></path>
    <path d="M144.26859,154.26561v16.0293h7.3911a13.31189,13.31189,0,0,0,7.2085-2.1367l.456-.3301c1.8247-1.8086,2.6465-3.45111,2.6465-4.9316,0-4.9317-2.5552-7.8906-7.3911-8.6309Zm13.0483,39.5371c-6.2964-5.6718-9.9463-8.959-10.6763-9.7812l.274.2461-2.5547-2.3008v16.9336H132.041v-54.0059h24.18069c4.1972,0,10.0371,3.4532,13.0488,7.56249,2.18951,3.37111,3.2852,6.33011,3.2852,8.795a17.445,17.445,0,0,1-6.0225,13.48041l-.5478.4121-.2735.2461-.8213.5762c-.3652.2461-.6391.41019-.91259.57419l-2.18991,1.15041-3.4673,1.1523a9.935,9.935,0,0,1-1.46.4102l1.7334,1.8086,19.1626,17.8379h-14.6914l-.456-.4121-.8213-.74031a1.52335,1.52335,0,0,1-.45609-.41009l-4.01511-3.5352Z" style="fill: #164194;"></path>
    <polygon points="191.443 145.059 191.443 198.9 179.398 198.9 179.398 145.059 191.443 145.059 191.443 145.059" style="fill: #164194;"></polygon>
    <polygon points="234.857 145.059 234.857 154.266 220.369 154.266 220.369 198.9 208.415 198.9 208.415 154.266 194.291 154.266 194.291 145.059 234.857 145.059 234.857 145.059" style="fill: #164194;"></polygon>
    <polygon points="249.294 145.059 249.294 198.9 237.615 198.9 237.615 145.059 249.294 145.059 249.294 145.059" style="fill: #164194;"></polygon>
    <path d="M309.15229,144.89451a23.21534,23.21534,0,0,1,13.59671,5.0957c3.64939,3.125,6.38669,8.1387,6.38669,11.7559v37.1543h-11.1318V164.293a8.71365,8.71365,0,0,0-8.7598-8.71289c-5.3837,0-9.125,3.5351-9.125,8.5488l-.0908,34.6875h-12.0449v-35.8379c0-1.39651-1.73339-4.0273-3.2852-5.3418a8.93349,8.93349,0,0,0-5.8398-1.8906c-4.8359,0-8.94239,3.6973-8.94239,8.1367v35.0176H258.51069v-36.8262c0-2.8769,2.0069-7.0683,4.6534-10.0273l1.6425-1.7266c1.6426-1.2324,2.6455-2.0547,3.0108-2.2187l1.64261-.9043c.36519-.1661,2.09859-.82231,2.28119-.90431l2.5547-.65819a17.00718,17.00718,0,0,1,4.1064-.4922c5.8399,0,9.9463,1.5605,15.2383,5.7519l.3653-.2461,1.36811-.9863,1.82519-1.3144,1.8252-1.0684a8.58158,8.58158,0,0,1,1.1865-.5762l4.1973-1.3144a13.38161,13.38161,0,0,1,3.6494-.4942Z" style="fill: #164194;"></path>
</svg>