<svg class="h-14 p-3" viewBox="0 0 439 286" version="1.1" xmlns="http://www.w3.org/2000/svg" xmlns:xlink="http://www.w3.org/1999/xlink" xml:space="preserve" xmlns:serif="http://www.serif.com/" style="fill-rule:evenodd;clip-rule:evenodd;stroke-linejoin:round;stroke-miterlimit:1.41421;">
    <g id="logo">
        <path d="M6.497,200.182l0.598,0l39.747,45.852l39.267,-45.852l0.598,0l0,83.084l-12.091,0l0,-52.796l-27.774,33.163l-0.599,0l-27.655,-33.163l0,52.796l-12.091,0l0,-83.084Z" class="fill-current" style="fill-rule:nonzero;"/>
        <path d="M171.223,242.563c0,-17.24 -11.852,-30.169 -28.732,-30.169c-16.88,0 -28.732,12.929 -28.732,30.169c0,17.239 11.852,30.168 28.732,30.168c16.88,0 28.732,-12.929 28.732,-30.168m-70.753,0c0,-24.064 18.677,-41.782 42.021,-41.782c23.345,0 42.02,17.718 42.02,41.782c0,24.062 -18.675,41.78 -42.02,41.78c-23.344,0 -42.021,-17.718 -42.021,-41.78" class="fill-current" style="fill-rule:nonzero;"/>
        <path d="M200.432,261.836c3.711,7.183 10.057,11.014 18.436,11.014c8.621,0 14.366,-4.07 14.366,-10.654c0,-7.661 -5.745,-10.296 -12.929,-13.528l-5.627,-2.515c-11.971,-5.266 -20.112,-11.493 -20.112,-24.182c0,-12.451 9.218,-21.191 22.627,-21.191c10.415,0 18.077,4.191 23.224,12.811l-9.697,6.344c-3.112,-5.267 -7.183,-7.901 -13.288,-7.901c-6.585,0 -10.415,3.831 -10.415,9.458c0,6.466 3.95,8.979 12.809,12.93l5.627,2.514c12.331,5.506 20.472,11.134 20.472,24.9c0,14.965 -11.494,22.507 -26.937,22.507c-13.767,0 -23.823,-6.703 -29.33,-17.119l10.774,-5.388Z" class="fill-current" style="fill-rule:nonzero;"/>
        <path d="M287.823,228.316l-13.527,32.204l26.815,0c0.12,0 -13.288,-32.204 -13.288,-32.204m-22.985,54.95l-12.93,0l35.676,-83.084l0.718,0l35.796,83.084l-13.529,0l-4.668,-11.373l-36.395,0l-4.668,11.373Z" class="fill-current" style="fill-rule:nonzero;"/>
        <rect x="335.825" y="201.859" width="12.811" height="81.408" class="fill-current" />
        <path d="M411.245,201.859l14.485,0l-28.852,36.513l33.162,44.894l-15.563,0l-25.978,-35.197l-8.979,11.014l0,24.183l-12.81,0l0,-81.407l12.81,0l0,40.344l31.725,-40.344Z" class="fill-current" style="fill-rule:nonzero;"/>
        <path d="M313.837,168.346c1.255,0 2.461,-1.323 2.207,-2.53l-34.667,-154.359c-0.394,-1.743 -2.392,-2.3 -3.553,-1.139l-154.727,154.438c-1.28,1.338 -0.443,3.562 1.477,3.59l189.263,0Z" class="fill-current" style="fill-rule:nonzero;"/>
        <path d="M206.097,72.957c0.696,-0.696 0.835,-2.066 -0.07,-2.972l-59.479,-59.596c-1.137,-1.138 -3.249,-1.046 -3.714,1.276l-35.043,154.125c-0.512,2.229 2.205,3.343 3.618,1.923l94.688,-94.756Z" class="fill-current" style="fill-rule:nonzero;"/>
    </g>
</svg>
